<svg xmlns="http://www.w3.org/2000/svg" width="1200" height="630" viewBox="0 0 1200 630">
  <title>govee-toolkit — control your Govee lights from your own machine</title>
  <rect width="1200" height="630" fill="#0a0d14"/>
  <path fill="#9694a0" d="M100.90 135.12H100.69Q100.42 135.75 100.05 136.33Q99.67 136.92 99.12 137.37Q98.56 137.82 97.78 138.09Q97.00 138.36 95.98 138.36Q92.71 138.36 91.06 135.57Q89.41 132.78 89.41 127.68Q89.41 122.34 91.30 119.52Q93.19 116.70 97.09 116.70Q98.62 116.70 99.78 117.12Q100.93 117.54 101.74 118.25Q102.55 118.95 103.09 119.90Q103.63 120.84 103.96 121.89L100.93 122.91Q100.69 122.22 100.39 121.61Q100.09 120.99 99.66 120.51Q99.22 120.03 98.60 119.76Q97.99 119.49 97.12 119.49Q94.93 119.49 93.96 121.19Q92.98 122.88 92.98 125.76V129.09Q92.98 130.53 93.19 131.73Q93.40 132.93 93.90 133.78Q94.39 134.64 95.19 135.12Q95.98 135.60 97.12 135.60Q98.95 135.60 99.93 134.50Q100.90 133.41 100.90 131.70V129.81H96.85V127.29H103.96V138.00H100.90Z"/>
  <path fill="#9694a0" d="M119.00 138.36Q117.02 138.36 115.56 137.62Q114.11 136.89 113.16 135.51Q112.22 134.13 111.77 132.12Q111.32 130.11 111.32 127.53Q111.32 124.98 111.77 122.96Q112.22 120.93 113.16 119.55Q114.11 118.17 115.56 117.44Q117.02 116.70 119.00 116.70Q120.98 116.70 122.43 117.44Q123.89 118.17 124.83 119.55Q125.78 120.93 126.23 122.96Q126.68 124.98 126.68 127.53Q126.68 130.11 126.23 132.12Q125.78 134.13 124.83 135.51Q123.89 136.89 122.43 137.62Q120.98 138.36 119.00 138.36ZM119.00 135.57Q121.25 135.57 122.18 133.88Q123.11 132.18 123.11 129.27V125.76Q123.11 122.88 122.18 121.19Q121.25 119.49 119.00 119.49Q116.75 119.49 115.82 121.19Q114.89 122.88 114.89 125.76V129.30Q114.89 132.18 115.82 133.88Q116.75 135.57 119.00 135.57Z"/>
  <path fill="#9694a0" d="M138.66 138.00 132.75 117.06H136.38L139.14 127.62L140.97 134.73H141.15L142.98 127.62L145.77 117.06H149.25L143.34 138.00Z"/>
  <path fill="#9694a0" d="M156.58 138.00V117.06H169.69V119.88H159.94V125.97H169.33V128.79H159.94V135.18H169.69V138.00Z"/>
  <path fill="#9694a0" d="M178.58 138.00V117.06H191.69V119.88H181.94V125.97H191.33V128.79H181.94V135.18H191.69V138.00Z"/>
  <path fill="#9694a0" d="M230.67 119.88V138.00H227.31V119.88H220.74V117.06H237.24V119.88Z"/>
  <path fill="#9694a0" d="M250.99 138.36Q249.01 138.36 247.56 137.62Q246.10 136.89 245.16 135.51Q244.21 134.13 243.76 132.12Q243.31 130.11 243.31 127.53Q243.31 124.98 243.76 122.96Q244.21 120.93 245.16 119.55Q246.10 118.17 247.56 117.44Q249.01 116.70 250.99 116.70Q252.97 116.70 254.43 117.44Q255.88 118.17 256.83 119.55Q257.77 120.93 258.22 122.96Q258.67 124.98 258.67 127.53Q258.67 130.11 258.22 132.12Q257.77 134.13 256.83 135.51Q255.88 136.89 254.43 137.62Q252.97 138.36 250.99 138.36ZM250.99 135.57Q253.24 135.57 254.17 133.88Q255.10 132.18 255.10 129.27V125.76Q255.10 122.88 254.17 121.19Q253.24 119.49 250.99 119.49Q248.74 119.49 247.81 121.19Q246.88 122.88 246.88 125.76V129.30Q246.88 132.18 247.81 133.88Q248.74 135.57 250.99 135.57Z"/>
  <path fill="#9694a0" d="M272.99 138.36Q271.01 138.36 269.56 137.62Q268.10 136.89 267.16 135.51Q266.21 134.13 265.76 132.12Q265.31 130.11 265.31 127.53Q265.31 124.98 265.76 122.96Q266.21 120.93 267.16 119.55Q268.10 118.17 269.56 117.44Q271.01 116.70 272.99 116.70Q274.97 116.70 276.43 117.44Q277.88 118.17 278.83 119.55Q279.77 120.93 280.22 122.96Q280.67 124.98 280.67 127.53Q280.67 130.11 280.22 132.12Q279.77 134.13 278.83 135.51Q277.88 136.89 276.43 137.62Q274.97 138.36 272.99 138.36ZM272.99 135.57Q275.24 135.57 276.17 133.88Q277.10 132.18 277.10 129.27V125.76Q277.10 122.88 276.17 121.19Q275.24 119.49 272.99 119.49Q270.74 119.49 269.81 121.19Q268.88 122.88 268.88 125.76V129.30Q268.88 132.18 269.81 133.88Q270.74 135.57 272.99 135.57Z"/>
  <path fill="#9694a0" d="M289.23 138.00V117.06H292.59V135.18H302.13V138.00Z"/>
  <path fill="#9694a0" d="M316.21 128.37 313.69 131.52V138.00H310.33V117.06H313.69V127.08H313.84L316.39 123.60L321.52 117.06H325.39L318.49 125.88L325.66 138.00H321.82Z"/>
  <path fill="#9694a0" d="M332.39 138.00V135.45H337.31V119.61H332.39V117.06H345.59V119.61H340.67V135.45H345.59V138.00Z"/>
  <path fill="#9694a0" d="M362.67 119.88V138.00H359.31V119.88H352.74V117.06H369.24V119.88Z"/>
  <path fill="#eae8e5" d="M114.13 264.89Q107.30 264.89 102.30 261.92Q97.30 258.95 94.59 253.09Q91.87 247.23 91.87 238.52Q91.87 229.81 94.59 223.78Q97.30 217.75 102.30 214.61Q107.30 211.46 114.13 211.46Q121.04 211.46 125.66 214.42Q130.28 217.38 132.99 223.36L124.67 227.80Q123.53 224.32 121.00 222.23Q118.47 220.14 114.13 220.14Q108.67 220.14 105.45 223.84Q102.24 227.54 102.24 234.20V242.32Q102.24 248.93 105.45 252.57Q108.67 256.21 114.13 256.21Q118.51 256.21 121.24 253.86Q123.97 251.52 125.27 248.03L133.20 252.70Q130.44 258.42 125.74 261.65Q121.04 264.89 114.13 264.89Z"/>
  <path fill="#eae8e5" d="M154.94 264.89Q149.42 264.89 145.40 262.41Q141.39 259.93 139.20 255.37Q137.02 250.82 137.02 244.65Q137.02 238.42 139.20 233.92Q141.39 229.42 145.40 226.94Q149.42 224.46 154.94 224.46Q160.46 224.46 164.48 226.94Q168.50 229.42 170.68 233.92Q172.86 238.42 172.86 244.65Q172.86 250.82 170.68 255.37Q168.50 259.93 164.48 262.41Q160.46 264.89 154.94 264.89ZM154.94 257.23Q158.66 257.23 160.80 254.93Q162.95 252.62 162.95 248.27V241.07Q162.95 236.68 160.80 234.39Q158.66 232.11 154.94 232.11Q151.30 232.11 149.12 234.39Q146.93 236.68 146.93 241.07V248.27Q146.93 252.62 149.12 254.93Q151.30 257.23 154.94 257.23Z"/>
  <path fill="#eae8e5" d="M189.31 264.00H179.84V225.35H189.31V231.82H189.71Q190.86 228.72 193.44 226.59Q196.01 224.46 200.51 224.46Q206.43 224.46 209.64 228.42Q212.85 232.38 212.85 239.61V264.00H203.38V240.54Q203.38 236.45 201.90 234.37Q200.42 232.29 197.02 232.29Q195.08 232.29 193.32 232.96Q191.56 233.64 190.43 235.01Q189.31 236.39 189.31 238.45Z"/>
  <path fill="#eae8e5" d="M240.83 264.00H234.05Q229.19 264.00 226.62 261.44Q224.06 258.88 224.06 254.16V232.87H218.34V225.35H221.32Q223.45 225.35 224.23 224.36Q225.01 223.38 225.01 221.40V214.82H233.53V225.35H241.42V232.87H233.53V256.47H240.83Z"/>
  <path fill="#eae8e5" d="M257.72 264.00H248.25V225.35H257.72V233.37H258.09Q258.60 231.31 259.85 229.48Q261.09 227.66 263.18 226.50Q265.27 225.35 268.33 225.35H270.36V234.29H267.41Q264.22 234.29 262.06 234.93Q259.90 235.58 258.81 236.88Q257.72 238.18 257.72 240.34Z"/>
  <path fill="#eae8e5" d="M291.31 264.89Q285.78 264.89 281.77 262.41Q277.75 259.93 275.57 255.37Q273.39 250.82 273.39 244.65Q273.39 238.42 275.57 233.92Q277.75 229.42 281.77 226.94Q285.78 224.46 291.31 224.46Q296.83 224.46 300.85 226.94Q304.86 229.42 307.05 233.92Q309.23 238.42 309.23 244.65Q309.23 250.82 307.05 255.37Q304.86 259.93 300.85 262.41Q296.83 264.89 291.31 264.89ZM291.31 257.23Q295.02 257.23 297.17 254.93Q299.32 252.62 299.32 248.27V241.07Q299.32 236.68 297.17 234.39Q295.02 232.11 291.31 232.11Q287.67 232.11 285.48 234.39Q283.30 236.68 283.30 241.07V248.27Q283.30 252.62 285.48 254.93Q287.67 257.23 291.31 257.23Z"/>
  <path fill="#eae8e5" d="M330.78 264.00H325.73Q320.87 264.00 318.54 261.56Q316.21 259.11 316.21 254.68V209.24H325.68V256.47H330.78Z"/>
  <path fill="#eae8e5" d="M369.59 245.79 376.34 225.35H385.26L369.68 270.85Q368.76 273.61 367.40 275.37Q366.03 277.14 363.93 277.97Q361.84 278.80 358.66 278.80H352.97V271.27H359.90L361.69 265.85L347.88 225.35H357.29L364.02 245.79L366.52 255.55H366.94Z"/>
  <path fill="#eae8e5" d="M405.40 264.89Q399.88 264.89 395.86 262.41Q391.85 259.93 389.66 255.37Q387.48 250.82 387.48 244.65Q387.48 238.42 389.66 233.92Q391.85 229.42 395.86 226.94Q399.88 224.46 405.40 224.46Q410.92 224.46 414.94 226.94Q418.96 229.42 421.14 233.92Q423.32 238.42 423.32 244.65Q423.32 250.82 421.14 255.37Q418.96 259.93 414.94 262.41Q410.92 264.89 405.40 264.89ZM405.40 257.23Q409.12 257.23 411.26 254.93Q413.41 252.62 413.41 248.27V241.07Q413.41 236.68 411.26 234.39Q409.12 232.11 405.40 232.11Q401.76 232.11 399.58 234.39Q397.39 236.68 397.39 241.07V248.27Q397.39 252.62 399.58 254.93Q401.76 257.23 405.40 257.23Z"/>
  <path fill="#eae8e5" d="M453.42 264.00V257.58H453.07Q452.06 260.47 449.55 262.68Q447.05 264.89 442.24 264.89Q436.34 264.89 433.11 260.95Q429.88 257.01 429.88 249.79V225.35H439.35V248.80Q439.35 252.81 440.92 254.94Q442.48 257.06 445.84 257.06Q447.74 257.06 449.48 256.38Q451.22 255.71 452.32 254.34Q453.42 252.98 453.42 250.93V225.35H462.89V264.00Z"/>
  <path fill="#eae8e5" d="M481.89 264.00H472.42V225.35H481.89V233.37H482.26Q482.77 231.31 484.02 229.48Q485.27 227.66 487.36 226.50Q489.45 225.35 492.51 225.35H494.54V234.29H491.58Q488.40 234.29 486.24 234.93Q484.07 235.58 482.98 236.88Q481.89 238.18 481.89 240.34Z"/>
  <path fill="#eae8e5" d="M549.76 264.00V255.98H549.43Q548.78 259.76 545.25 262.33Q541.73 264.89 535.86 264.89Q529.83 264.89 525.01 261.84Q520.19 258.80 517.40 252.89Q514.61 246.99 514.61 238.33Q514.61 229.64 517.48 223.66Q520.34 217.68 525.54 214.57Q530.73 211.46 537.58 211.46Q544.48 211.46 549.43 214.53Q554.38 217.59 557.15 223.25L549.18 227.87Q547.82 224.51 545.01 222.33Q542.20 220.14 537.58 220.14Q533.79 220.14 530.94 221.73Q528.09 223.31 526.53 226.40Q524.97 229.48 524.97 234.01V242.32Q524.97 246.85 526.53 249.93Q528.09 253.01 530.97 254.61Q533.86 256.21 537.75 256.21Q540.80 256.21 543.29 255.21Q545.78 254.21 547.28 252.27Q548.78 250.33 548.78 247.44V244.11H538.64V235.87H558.14V264.00Z"/>
  <path fill="#eae8e5" d="M582.85 264.89Q577.33 264.89 573.31 262.41Q569.30 259.93 567.12 255.37Q564.93 250.82 564.93 244.65Q564.93 238.42 567.12 233.92Q569.30 229.42 573.31 226.94Q577.33 224.46 582.85 224.46Q588.38 224.46 592.39 226.94Q596.41 229.42 598.59 233.92Q600.77 238.42 600.77 244.65Q600.77 250.82 598.59 255.37Q596.41 259.93 592.39 262.41Q588.38 264.89 582.85 264.89ZM582.85 257.23Q586.57 257.23 588.72 254.93Q590.86 252.62 590.86 248.27V241.07Q590.86 236.68 588.72 234.39Q586.57 232.11 582.85 232.11Q579.21 232.11 577.03 234.39Q574.84 236.68 574.84 241.07V248.27Q574.84 252.62 577.03 254.93Q579.21 257.23 582.85 257.23Z"/>
  <path fill="#eae8e5" d="M627.30 264.00H616.09L603.16 225.35H612.53L617.88 241.99L621.66 255.75H622.19L625.97 241.99L631.26 225.35H640.25Z"/>
  <path fill="#eae8e5" d="M660.80 264.89Q655.10 264.89 651.02 262.41Q646.93 259.93 644.76 255.37Q642.59 250.82 642.59 244.65Q642.59 238.53 644.71 234.00Q646.83 229.47 650.83 226.96Q654.84 224.46 660.49 224.46Q666.53 224.46 670.41 227.12Q674.30 229.79 676.19 234.22Q678.08 238.64 678.08 243.94V247.07H652.40V248.01Q652.40 252.18 654.78 254.75Q657.15 257.31 661.80 257.31Q665.32 257.31 667.60 255.81Q669.89 254.32 671.63 252.08L676.73 257.77Q674.36 261.00 670.25 262.94Q666.15 264.89 660.80 264.89ZM660.64 231.61Q658.14 231.61 656.29 232.75Q654.43 233.89 653.42 235.92Q652.40 237.94 652.40 240.65V241.22H668.23V240.51Q668.23 237.83 667.36 235.84Q666.49 233.85 664.80 232.73Q663.10 231.61 660.64 231.61Z"/>
  <path fill="#eae8e5" d="M700.70 264.89Q695.00 264.89 690.92 262.41Q686.83 259.93 684.66 255.37Q682.49 250.82 682.49 244.65Q682.49 238.53 684.61 234.00Q686.73 229.47 690.73 226.96Q694.74 224.46 700.39 224.46Q706.43 224.46 710.32 227.12Q714.20 229.79 716.09 234.22Q717.99 238.64 717.99 243.94V247.07H692.31V248.01Q692.31 252.18 694.68 254.75Q697.05 257.31 701.70 257.31Q705.22 257.31 707.50 255.81Q709.79 254.32 711.53 252.08L716.63 257.77Q714.26 261.00 710.16 262.94Q706.05 264.89 700.70 264.89ZM700.54 231.61Q698.04 231.61 696.19 232.75Q694.33 233.89 693.32 235.92Q692.31 237.94 692.31 240.65V241.22H708.13V240.51Q708.13 237.83 707.26 235.84Q706.39 233.85 704.70 232.73Q703.00 231.61 700.54 231.61Z"/>
  <path fill="#eae8e5" d="M755.58 264.00H750.54Q745.68 264.00 743.35 261.56Q741.01 259.11 741.01 254.68V209.24H750.48V256.47H755.58Z"/>
  <path fill="#eae8e5" d="M766.11 219.78Q763.22 219.78 761.89 218.42Q760.56 217.05 760.56 214.99V213.56Q760.56 211.46 761.89 210.11Q763.22 208.77 766.11 208.77Q769.03 208.77 770.35 210.11Q771.67 211.46 771.67 213.56V214.99Q771.67 217.05 770.35 218.42Q769.03 219.78 766.11 219.78ZM761.38 264.00V225.35H770.85V264.00Z"/>
  <path fill="#eae8e5" d="M815.19 267.23Q815.19 271.25 813.20 274.04Q811.20 276.83 806.76 278.26Q802.31 279.69 794.91 279.69Q788.42 279.69 784.48 278.60Q780.53 277.52 778.75 275.46Q776.97 273.41 776.97 270.55Q776.97 267.34 778.81 265.51Q780.64 263.68 783.87 263.15V262.34Q781.46 261.73 780.18 260.02Q778.90 258.31 778.90 255.97Q778.90 252.98 781.04 251.35Q783.18 249.73 785.96 249.15V248.85Q782.50 247.22 780.72 244.32Q778.94 241.42 778.94 237.58Q778.94 233.66 780.77 230.70Q782.59 227.74 786.16 226.10Q789.73 224.46 794.91 224.46Q796.83 224.46 798.53 224.70Q800.24 224.94 801.69 225.42V224.18Q801.69 221.38 803.09 219.97Q804.50 218.55 807.12 218.55H813.13V225.82H804.94V226.85Q807.95 228.52 809.44 231.30Q810.93 234.07 810.93 237.58Q810.93 241.43 809.13 244.37Q807.32 247.32 803.75 248.93Q800.18 250.54 794.93 250.54Q793.29 250.54 791.78 250.35Q790.27 250.16 788.99 249.86Q787.92 250.38 787.11 251.22Q786.30 252.06 786.30 253.32Q786.30 254.81 787.54 255.53Q788.78 256.25 791.32 256.25H801.65Q808.75 256.25 811.97 259.14Q815.19 262.02 815.19 267.23ZM806.30 268.40Q806.30 266.52 804.82 265.49Q803.34 264.46 799.74 264.46H786.59Q785.53 265.23 785.04 266.26Q784.55 267.29 784.55 268.44Q784.55 270.65 786.41 271.90Q788.28 273.16 792.74 273.16H797.48Q802.08 273.16 804.19 271.97Q806.30 270.78 806.30 268.40ZM794.93 244.08Q798.34 244.08 800.12 242.56Q801.89 241.03 801.89 238.14V236.91Q801.89 233.97 800.12 232.47Q798.34 230.97 794.93 230.97Q791.58 230.97 789.77 232.47Q787.97 233.97 787.97 236.91V238.14Q787.97 241.03 789.77 242.56Q791.58 244.08 794.93 244.08Z"/>
  <path fill="#eae8e5" d="M819.28 264.00V209.24H828.74V231.82H829.14Q830.29 228.72 832.87 226.59Q835.45 224.46 839.95 224.46Q845.87 224.46 849.08 228.42Q852.28 232.38 852.28 239.61V264.00H842.81V240.54Q842.81 236.45 841.33 234.37Q839.86 232.29 836.45 232.29Q834.51 232.29 832.75 232.96Q830.99 233.64 829.87 235.01Q828.74 236.39 828.74 238.45V264.00Z"/>
  <path fill="#eae8e5" d="M880.26 264.00H873.49Q868.63 264.00 866.06 261.44Q863.49 258.88 863.49 254.16V232.87H857.78V225.35H860.75Q862.89 225.35 863.67 224.36Q864.45 223.38 864.45 221.40V214.82H872.96V225.35H880.85V232.87H872.96V256.47H880.26Z"/>
  <path fill="#eae8e5" d="M900.35 264.89Q894.84 264.89 891.06 263.01Q887.27 261.13 884.37 257.78L890.15 252.18Q892.27 254.61 894.85 256.01Q897.43 257.40 900.74 257.40Q904.15 257.40 905.66 256.22Q907.17 255.03 907.17 252.96Q907.17 251.26 906.09 250.26Q905.02 249.26 902.44 248.90L898.57 248.40Q894.47 247.83 891.58 246.43Q888.69 245.02 887.20 242.61Q885.71 240.20 885.71 236.70Q885.71 231.05 889.73 227.76Q893.75 224.46 900.37 224.46Q904.16 224.46 906.85 225.17Q909.54 225.89 911.60 227.26Q913.65 228.62 915.47 230.55L909.88 236.13Q908.20 234.31 905.84 233.12Q903.47 231.94 900.66 231.94Q897.66 231.94 896.23 233.04Q894.80 234.13 894.80 235.98Q894.80 237.89 895.96 238.87Q897.12 239.85 899.83 240.29L903.79 240.84Q910.15 241.69 913.20 244.55Q916.26 247.41 916.26 252.24Q916.26 255.94 914.30 258.82Q912.33 261.69 908.76 263.29Q905.19 264.89 900.35 264.89Z"/>
  <path fill="#ff3d00" d="M95.42 352.00V320.87H89.73V313.35H95.42V307.84Q95.42 302.72 98.15 299.98Q100.87 297.24 106.08 297.24H112.79V304.77H104.89V313.35H112.79V320.87H104.89V352.00Z"/>
  <path fill="#ff3d00" d="M127.43 352.00H117.96V313.35H127.43V321.37H127.80Q128.31 319.31 129.56 317.48Q130.81 315.66 132.90 314.50Q134.99 313.35 138.05 313.35H140.08V322.29H137.12Q133.94 322.29 131.78 322.93Q129.61 323.58 128.52 324.88Q127.43 326.18 127.43 328.34Z"/>
  <path fill="#ff3d00" d="M161.02 352.89Q155.50 352.89 151.49 350.41Q147.47 347.93 145.29 343.37Q143.10 338.82 143.10 332.65Q143.10 326.42 145.29 321.92Q147.47 317.42 151.49 314.94Q155.50 312.46 161.02 312.46Q166.55 312.46 170.56 314.94Q174.58 317.42 176.76 321.92Q178.94 326.42 178.94 332.65Q178.94 338.82 176.76 343.37Q174.58 347.93 170.56 350.41Q166.55 352.89 161.02 352.89ZM161.02 345.23Q164.74 345.23 166.89 342.93Q169.03 340.62 169.03 336.27V329.07Q169.03 324.68 166.89 322.39Q164.74 320.11 161.02 320.11Q157.38 320.11 155.20 322.39Q153.02 324.68 153.02 329.07V336.27Q153.02 340.62 155.20 342.93Q157.38 345.23 161.02 345.23Z"/>
  <path fill="#ff3d00" d="M195.39 352.00H185.93V313.35H195.39V319.82H195.79Q196.90 316.76 199.37 314.61Q201.85 312.46 206.18 312.46Q210.11 312.46 213.04 314.40Q215.96 316.35 217.30 320.28H217.50Q218.54 317.07 221.62 314.76Q224.71 312.46 229.28 312.46Q234.97 312.46 238.05 316.43Q241.13 320.39 241.13 327.61V352.00H231.67V328.54Q231.67 324.40 230.16 322.34Q228.66 320.29 225.44 320.29Q223.62 320.29 221.97 320.96Q220.31 321.64 219.29 323.00Q218.26 324.37 218.26 326.45V352.00H208.80V328.54Q208.80 324.38 207.27 322.33Q205.74 320.29 202.62 320.29Q200.84 320.29 199.18 320.96Q197.51 321.64 196.45 323.00Q195.39 324.37 195.39 326.45Z"/>
  <path fill="#ff3d00" d="M283.26 333.79 290.01 313.35H298.93L283.35 358.85Q282.43 361.61 281.07 363.37Q279.70 365.14 277.61 365.97Q275.51 366.80 272.33 366.80H266.64V359.27H273.57L275.36 353.85L261.55 313.35H270.96L277.69 333.79L280.19 343.55H280.62Z"/>
  <path fill="#ff3d00" d="M319.07 352.89Q313.55 352.89 309.53 350.41Q305.52 347.93 303.34 343.37Q301.15 338.82 301.15 332.65Q301.15 326.42 303.34 321.92Q305.52 317.42 309.53 314.94Q313.55 312.46 319.07 312.46Q324.60 312.46 328.61 314.94Q332.63 317.42 334.81 321.92Q336.99 326.42 336.99 332.65Q336.99 338.82 334.81 343.37Q332.63 347.93 328.61 350.41Q324.60 352.89 319.07 352.89ZM319.07 345.23Q322.79 345.23 324.93 342.93Q327.08 340.62 327.08 336.27V329.07Q327.08 324.68 324.93 322.39Q322.79 320.11 319.07 320.11Q315.43 320.11 313.25 322.39Q311.06 324.68 311.06 329.07V336.27Q311.06 340.62 313.25 342.93Q315.43 345.23 319.07 345.23Z"/>
  <path fill="#ff3d00" d="M367.09 352.00V345.58H366.74Q365.74 348.47 363.23 350.68Q360.72 352.89 355.91 352.89Q350.01 352.89 346.78 348.95Q343.55 345.01 343.55 337.79V313.35H353.02V336.80Q353.02 340.81 354.59 342.94Q356.16 345.06 359.51 345.06Q361.41 345.06 363.15 344.38Q364.90 343.71 365.99 342.34Q367.09 340.98 367.09 338.93V313.35H376.56V352.00Z"/>
  <path fill="#ff3d00" d="M395.56 352.00H386.10V313.35H395.56V321.37H395.93Q396.44 319.31 397.69 317.48Q398.94 315.66 401.03 314.50Q403.12 313.35 406.18 313.35H408.21V322.29H405.25Q402.07 322.29 399.91 322.93Q397.74 323.58 396.65 324.88Q395.56 326.18 395.56 328.34Z"/>
  <path fill="#ff3d00" d="M445.23 352.89Q439.70 352.89 435.69 350.41Q431.67 347.93 429.49 343.37Q427.31 338.82 427.31 332.65Q427.31 326.42 429.49 321.92Q431.67 317.42 435.69 314.94Q439.70 312.46 445.23 312.46Q450.75 312.46 454.77 314.94Q458.78 317.42 460.97 321.92Q463.15 326.42 463.15 332.65Q463.15 338.82 460.97 343.37Q458.78 347.93 454.77 350.41Q450.75 352.89 445.23 352.89ZM445.23 345.23Q448.94 345.23 451.09 342.93Q453.24 340.62 453.24 336.27V329.07Q453.24 324.68 451.09 322.39Q448.94 320.11 445.23 320.11Q441.59 320.11 439.40 322.39Q437.22 324.68 437.22 329.07V336.27Q437.22 340.62 439.40 342.93Q441.59 345.23 445.23 345.23Z"/>
  <path fill="#ff3d00" d="M477.02 352.00 466.34 313.35H475.51L479.37 329.27L482.45 342.56H482.70L486.26 329.27L490.81 313.35H499.41L504.05 329.27L507.69 342.56H507.94L510.98 329.27L514.86 313.35H523.65L513.09 352.00H502.84L497.93 335.00L495.02 324.48H494.82L491.98 335.00L487.07 352.00Z"/>
  <path fill="#ff3d00" d="M538.81 352.00H529.34V313.35H538.81V319.82H539.21Q540.36 316.72 542.94 314.59Q545.52 312.46 550.02 312.46Q555.94 312.46 559.14 316.42Q562.35 320.38 562.35 327.61V352.00H552.88V328.54Q552.88 324.45 551.40 322.37Q549.92 320.29 546.52 320.29Q544.58 320.29 542.82 320.96Q541.06 321.64 539.94 323.01Q538.81 324.39 538.81 326.45Z"/>
  <path fill="#ff3d00" d="M597.01 352.00H587.54V313.35H597.01V319.82H597.41Q598.51 316.76 600.98 314.61Q603.46 312.46 607.80 312.46Q611.73 312.46 614.65 314.40Q617.57 316.35 618.91 320.28H619.12Q620.15 317.07 623.23 314.76Q626.32 312.46 630.89 312.46Q636.58 312.46 639.66 316.43Q642.75 320.39 642.75 327.61V352.00H633.28V328.54Q633.28 324.40 631.78 322.34Q630.28 320.29 627.06 320.29Q625.23 320.29 623.58 320.96Q621.92 321.64 620.90 323.00Q619.88 324.37 619.88 326.45V352.00H610.41V328.54Q610.41 324.38 608.88 322.33Q607.35 320.29 604.23 320.29Q602.46 320.29 600.79 320.96Q599.13 321.64 598.07 323.00Q597.01 324.37 597.01 326.45Z"/>
  <path fill="#ff3d00" d="M685.55 352.00H680.29Q678.18 352.00 676.52 351.00Q674.86 350.00 673.93 348.10Q673.00 346.19 673.00 343.58V342.75L675.35 345.37H672.71Q671.73 349.05 668.73 350.97Q665.73 352.89 661.42 352.89Q655.51 352.89 652.32 349.75Q649.14 346.62 649.14 341.50Q649.14 337.51 651.10 334.90Q653.06 332.29 656.75 330.97Q660.44 329.65 665.68 329.65H672.24V326.81Q672.24 323.63 670.54 321.82Q668.84 320.02 665.03 320.02Q661.73 320.02 659.68 321.47Q657.62 322.92 656.28 324.93L650.64 319.88Q652.77 316.53 656.33 314.50Q659.89 312.46 665.70 312.46Q673.52 312.46 677.61 316.05Q681.70 319.63 681.70 326.27V344.47H685.55ZM672.24 335.34H666.17Q662.44 335.34 660.59 336.56Q658.75 337.78 658.75 340.12V341.36Q658.75 343.65 660.30 344.84Q661.85 346.03 664.57 346.03Q666.75 346.03 668.46 345.39Q670.17 344.75 671.20 343.50Q672.24 342.25 672.24 340.43Z"/>
  <path fill="#ff3d00" d="M707.09 352.89Q698.55 352.89 693.92 347.41Q689.28 341.93 689.28 332.65Q689.28 323.37 693.92 317.91Q698.55 312.46 707.09 312.46Q712.94 312.46 716.76 315.08Q720.57 317.70 722.25 322.25L714.53 325.70Q713.86 323.26 712.00 321.69Q710.15 320.11 707.09 320.11Q703.19 320.11 701.19 322.60Q699.19 325.09 699.19 329.18V336.22Q699.19 340.24 701.19 342.76Q703.19 345.29 707.09 345.29Q710.45 345.29 712.34 343.53Q714.22 341.78 715.25 339.20L722.52 342.66Q720.62 347.77 716.67 350.33Q712.72 352.89 707.09 352.89Z"/>
  <path fill="#ff3d00" d="M728.40 352.00V297.24H737.87V319.82H738.27Q739.42 316.72 742.00 314.59Q744.58 312.46 749.08 312.46Q755.00 312.46 758.20 316.42Q761.41 320.38 761.41 327.61V352.00H751.94V328.54Q751.94 324.45 750.46 322.37Q748.98 320.29 745.58 320.29Q743.64 320.29 741.88 320.96Q740.12 321.64 739.00 323.01Q737.87 324.39 737.87 326.45V352.00Z"/>
  <path fill="#ff3d00" d="M775.26 307.78Q772.37 307.78 771.03 306.42Q769.70 305.05 769.70 302.99V301.56Q769.70 299.46 771.03 298.11Q772.37 296.77 775.26 296.77Q778.17 296.77 779.50 298.11Q780.82 299.46 780.82 301.56V302.99Q780.82 305.05 779.50 306.42Q778.17 307.78 775.26 307.78ZM770.53 352.00V313.35H779.99V352.00Z"/>
  <path fill="#ff3d00" d="M798.95 352.00H789.48V313.35H798.95V319.82H799.35Q800.50 316.72 803.08 314.59Q805.66 312.46 810.16 312.46Q816.08 312.46 819.28 316.42Q822.49 320.38 822.49 327.61V352.00H813.02V328.54Q813.02 324.45 811.54 322.37Q810.06 320.29 806.66 320.29Q804.72 320.29 802.96 320.96Q801.20 321.64 800.08 323.01Q798.95 324.39 798.95 326.45Z"/>
  <path fill="#ff3d00" d="M847.27 352.89Q841.56 352.89 837.48 350.41Q833.40 347.93 831.23 343.37Q829.05 338.82 829.05 332.65Q829.05 326.53 831.17 322.00Q833.29 317.47 837.30 314.96Q841.30 312.46 846.95 312.46Q853.00 312.46 856.88 315.12Q860.76 317.79 862.66 322.22Q864.55 326.64 864.55 331.94V335.07H838.87V336.01Q838.87 340.18 841.24 342.75Q843.61 345.31 848.26 345.31Q851.78 345.31 854.07 343.81Q856.35 342.32 858.09 340.08L863.20 345.77Q860.82 349.00 856.72 350.94Q852.62 352.89 847.27 352.89ZM847.11 319.61Q844.61 319.61 842.75 320.75Q840.90 321.89 839.88 323.92Q838.87 325.94 838.87 328.65V329.22H854.69V328.51Q854.69 325.83 853.82 323.84Q852.96 321.85 851.26 320.73Q849.57 319.61 847.11 319.61Z"/>
  <path fill="#ff3d00" d="M877.11 352.84Q874.08 352.84 872.63 351.28Q871.18 349.72 871.18 347.40V346.07Q871.18 343.68 872.63 342.15Q874.08 340.63 877.11 340.63Q880.15 340.63 881.59 342.15Q883.03 343.68 883.03 346.07V347.40Q883.03 349.72 881.59 351.28Q880.15 352.84 877.11 352.84Z"/>
  <circle cx="544" cy="497" r="16" fill="#ff3d00"/>
  <circle cx="600" cy="497" r="16" fill="#00c2b5"/>
  <circle cx="656" cy="497" r="16" fill="#7c5cff"/>
</svg>
